# xmcd
#
# Track frame offsets:
#	180
#	11736
#	26361
#	37609
#	57693
#	71668
#	84951
#	102113
#	116750
#	141482
#	159690
#	187208
#	200195
#	211965
#	220367
#	235847
#	247065
#	257411
#	273020
#
# Disc length: 3788 seconds
#
# Revision: 0
# Processed by: cddbd v1.5.2PL0 Copyright (c) Steve Scherf et al.
# Submitted via: dBpowerAMP V4.0
#
DISCID=1a0eca13
DTITLE=The Light Crust Doughboys - Silver Age Collection - Yesterday and Today
DYEAR=1996
DGENRE=Country
TTITLE0=Opening Theme Song
TTITLE1=You Are My Sunshine
TTITLE2=Banaparte's Retreat
TTITLE3=Sugar Blues
TTITLE4=Sixteen Tons
TTITLE5=Twinkle, Twinkle, Little Star
TTITLE6=I'm So Lonesome I Could Cry
TTITLE7=MISISSIPPI
TTITLE8=Lord, Take All of Me
TTITLE9=South
TTITLE10=I Really Don't Want to Know
TTITLE11=Send the Light - Wildwood Flower
TTITLE12=Yesterday
TTITLE13=Spaghetti Rag
TTITLE14=Hallelujah Yodel Lady
TTITLE15=Old Rivers
TTITLE16=Bells of St Mary's
TTITLE17=Toy Yodeler
TTITLE18=Closing Theme
EXTD=
EXTT0=
EXTT1=
EXTT2=
EXTT3=
EXTT4=
EXTT5=
EXTT6=
EXTT7=
EXTT8=
EXTT9=
EXTT10=
EXTT11=
EXTT12=
EXTT13=
EXTT14=
EXTT15=
EXTT16=
EXTT17=
EXTT18=
PLAYORDER=
